<?xml version="1.0" encoding="utf-8"?>
<!-- Generator: Adobe Illustrator 24.1.2, SVG Export Plug-In . SVG Version: 6.00 Build 0)  -->
<svg version="1.1" id="Layer_1" xmlns="http://www.w3.org/2000/svg" xmlns:xlink="http://www.w3.org/1999/xlink" x="0px" y="0px"
	 viewBox="0 0 901.98 363.14" style="enable-background:new 0 0 901.98 363.14;" xml:space="preserve">
<style type="text/css">
	.st0{fill:none;}
	.st1{fill:url(#SVGID_1_);}
	.st2{fill:url(#SVGID_2_);}
	.st3{fill:url(#SVGID_3_);}
	.st4{fill:url(#SVGID_4_);}
	.st5{fill:#414042;}
</style>
<rect x="-3521.08" y="-928.62" class="st0" width="880" height="880"/>
<g>
	<g>
		<linearGradient id="SVGID_1_" gradientUnits="userSpaceOnUse" x1="33.2308" y1="215.7816" x2="163.035" y2="215.7816">
			<stop  offset="0" style="stop-color:#812990"/>
			<stop  offset="1" style="stop-color:#2C296E"/>
		</linearGradient>
		<path class="st1" d="M162.09,109.16l-25.85,146.73c-2.66,14.82-11.4,26.6-42.19,26.6c-5.71,0-11.03-1.52-11.03-1.52l-11.78,67.66
			H33.23l0.38-2.28c6.08-1.15,11.79-7.23,13.31-9.13l42.57-242.9c-0.76-1.9-3.81-7.98-10.26-8.74l0.38-2.66H137
			C160.19,82.93,165.51,89.39,162.09,109.16z M134.34,114.1c0.76-4.94-1.52-8.74-9.12-8.74H114.2L87.97,254.37
			c-1.15,4.56,1.9,7.6,9.5,7.6c7.6,0,11.02-3.05,12.16-7.6L134.34,114.1z"/>
		<linearGradient id="SVGID_2_" gradientUnits="userSpaceOnUse" x1="156.2787" y1="181.9542" x2="258.381" y2="181.9542">
			<stop  offset="0" style="stop-color:#812990"/>
			<stop  offset="1" style="stop-color:#2C296E"/>
		</linearGradient>
		<path class="st2" d="M231.65,255.89c-2.28,13.3-11.03,26.99-41.82,26.99c-30.41,0-35.35-13.69-33.07-26.99l25.85-148.25
			c2.28-13.31,11.79-26.61,42.57-26.61c30.41,0,34.97,13.3,32.69,26.61L231.65,255.89z M230.89,109.16c0.76-4.56-1.9-7.6-9.5-7.6
			c-7.6,0-11.4,3.04-12.16,7.6l-25.47,145.21c-0.75,4.94,1.52,7.6,9.13,7.6s11.79-2.67,12.54-7.6L230.89,109.16z"/>
		<linearGradient id="SVGID_3_" gradientUnits="userSpaceOnUse" x1="244.9541" y1="181.5714" x2="354.045" y2="181.5714">
			<stop  offset="0" style="stop-color:#812990"/>
			<stop  offset="1" style="stop-color:#2C296E"/>
		</linearGradient>
		<path class="st3" d="M334.28,198.11c-1.51,7.98-10.26,57.78-10.26,57.78c-2.28,13.3-11.79,26.6-42.57,26.6
			c-15.97,0-25.09-3.8-29.27-9.12c-1.9,1.9-3.8,4.18-4.56,7.22h-2.66l11.4-66.14h26.23l-6.84,39.91c-0.76,4.56,1.9,7.6,9.5,7.6
			s11.4-3.05,12.16-7.6l7.98-46.76c1.14-5.32-2.28-9.5-5.32-11.03c0,0-22.81-12.16-27.75-14.44c-4.94-2.66-9.5-8.74-7.98-17.1
			c1.9-10.26,10.26-57.4,10.26-57.4c2.28-13.31,11.78-26.99,42.57-26.99c15.96,0,25.47,3.8,29.65,9.5c1.9-1.9,4.18-4.56,4.94-7.22
			h2.28l-11.4,64.62h-26.61l6.84-38.4c0.76-4.56-1.9-7.6-9.5-7.6c-7.6,0-11.4,3.04-12.16,7.6l-7.98,44.86
			c-1.14,6.84,0,8.74,3.42,11.02c1.9,1.52,26.99,14.82,30.79,17.1C332.38,184.42,335.42,191.26,334.28,198.11z"/>
		<linearGradient id="SVGID_4_" gradientUnits="userSpaceOnUse" x1="330.8548" y1="147.5516" x2="448.8189" y2="147.5516">
			<stop  offset="0" style="stop-color:#812990"/>
			<stop  offset="1" style="stop-color:#2C296E"/>
		</linearGradient>
		<path class="st4" d="M429.69,280.59h-38.77l30.03-171.06c0.76-4.94-1.52-7.6-9.12-7.6c-7.6,0-11.79,2.66-12.55,7.6l-30.02,171.06
			h-38.4l0.38-2.28c6.84-1.14,12.54-7.98,13.3-9.5l44.47-254.3h26.61h12.16l-0.38,2.66c-6.47,0.76-11.79,6.84-13.31,8.74
			l-10.26,57.02c0,0,6.08-1.9,12.55-1.9c26.99,0,34.59,11.4,31.93,26.61l-28.51,161.17c0.76,1.52,3.42,8.37,10.26,9.5L429.69,280.59
			z"/>
	</g>
	<path class="st5" d="M550.57,109.16l-25.85,146.73c-2.66,14.82-11.4,26.6-42.19,26.6c-5.71,0-11.03-1.52-11.03-1.52l-11.78,67.66
		h-38.01l0.38-2.28c6.08-1.15,11.79-7.23,13.31-9.13l42.57-242.9c-0.76-1.9-3.81-7.98-10.26-8.74l0.38-2.66h57.4
		C548.67,82.93,553.99,89.39,550.57,109.16z M522.82,114.1c0.76-4.94-1.52-8.74-9.12-8.74h-11.03l-26.23,149.01
		c-1.15,4.56,1.9,7.6,9.5,7.6c7.6,0,11.02-3.05,12.16-7.6L522.82,114.1z"/>
	<path class="st5" d="M640.27,113.72h-2.66c0-4.94-3.05-8.74-5.32-10.65c-17.87,0-34.59,20.15-39.15,46.76l-20.91,118.98
		c0.75,1.91,3.8,8.37,9.88,9.5l-0.38,2.28h-50.18l0.38-2.28c7.23-1.14,12.55-7.98,13.69-9.5l30.03-174.09
		c-0.38-1.52-3.42-8.36-9.89-9.12l0.38-2.66h38.77l-2.66,13.68c10.64-12.16,22.43-15.96,36.49-15.96h7.22L640.27,113.72z"/>
	<path class="st5" d="M661.95,278.31l-0.38,2.28H611.4l0.38-2.28c8.36-1.51,12.92-9.12,12.92-9.12l30.41-174.86
		c-1.14-2.28-3.8-7.98-9.88-8.74l0.38-2.66H684l-32.69,185.88C651.31,268.81,654.73,277.17,661.95,278.31z M688.18,62.02h-26.99
		l4.57-26.61h26.99L688.18,62.02z"/>
	<path class="st5" d="M774.1,278.31l-0.38,2.28h-38.77l30.03-168.77c0.76-4.56-4.94-7.22-12.54-7.22c-8.37,0-14.45,3.04-15.21,7.6
		l-29.65,168.4h-38.39l0.38-2.28c6.47-0.75,11.4-6.46,13.31-8.74l30.79-175.62c-1.14-2.28-4.56-7.6-9.88-8.36l0.38-2.28h38.39
		l-0.38,2.28c3.42-2.28,10.64-4.56,17.87-4.56c28.5,0,34.58,13.68,32.31,26.99l-28.13,161.17
		C764.59,270.71,767.63,277.56,774.1,278.31z"/>
	<path class="st5" d="M846.32,102.69l-29.27,166.11c1.15,1.52,4.18,8.37,10.65,9.5l-0.38,2.28h-50.55l0.38-2.28
		c7.23-1.14,12.55-7.98,13.31-9.5l28.89-166.11h-12.55l3.42-19.38h12.55l6.84-38.01h39.15l-0.38,2.66
		c-7.22,1.14-12.54,7.6-13.68,9.13l-4.94,26.23h12.93l-3.42,19.38H846.32z"/>
</g>
</svg>
